<svg width="161" height="44" viewBox="0 0 161 44" fill="none" xmlns="http://www.w3.org/2000/svg">
<g clip-path="url(#clip0_673_584)">
<path d="M42.9627 26.0827V36.9572H46.3866V31.7891H58.223V28.3652H46.3866V27.121C46.3866 26.8151 46.6337 26.568 46.9396 26.568H58.2259V23.1442H45.9012C44.2805 23.1442 42.9657 24.459 42.9657 26.0797L42.9627 26.0827Z" fill="black"/>
<path d="M64.8265 23.1501H61.4026V36.9602H64.8265V23.1501Z" fill="black"/>
<path d="M67.5209 26.571H73.2155V36.9572H73.242H76.6393H76.6658V26.571H82.1693V23.1501H67.5209V26.571Z" fill="black"/>
<path d="M105.563 8.28107H111.069V4.86017H96.4206V8.28107H102.115V18.682H102.139H105.563V8.28107Z" fill="black"/>
<path d="M74.7039 18.832C75.1686 18.832 75.6363 18.7173 76.0716 18.482C77.0158 17.9702 77.5571 16.9348 77.5571 15.8641V4.86017H74.1332V14.4669L66.3355 5.66906L66.2649 5.59259C65.2471 4.57485 63.6058 4.44836 62.4116 5.42492C61.7409 5.97203 61.4026 6.82799 61.4026 7.69278V18.682H64.8265V9.12232L72.6949 17.9967C73.242 18.5438 73.9656 18.832 74.7068 18.832H74.7039Z" fill="black"/>
<path d="M97.5766 32.7892L89.7788 23.9913L89.7082 23.9148C88.8405 23.0471 87.5227 22.8265 86.4108 23.3854C85.4313 23.8766 84.843 24.909 84.843 26.0032V36.9572H88.2669V27.4445L96.1353 36.3189C96.6824 36.866 97.406 37.1543 98.1472 37.1543C98.6414 37.1543 99.1414 37.0248 99.6003 36.7572C100.486 36.2395 101 35.26 101 34.2334V23.1824H97.5766V32.7892Z" fill="black"/>
<path d="M134.721 28.3476H126.67C126.188 28.3476 125.8 27.9564 125.8 27.477C125.8 26.9975 126.2 26.5828 126.694 26.5828H138.345V23.1501H126.712C124.338 23.1501 122.394 25.0944 122.394 27.4681V27.4887C122.394 29.8566 124.314 31.7773 126.682 31.7773H134.736C135.23 31.7773 135.63 32.1774 135.63 32.6715C135.63 33.1657 135.239 33.5481 134.753 33.5481H122.979V36.9719H134.727C137.107 36.9719 139.036 35.0423 139.036 32.6627C139.036 30.289 137.095 28.3476 134.721 28.3476Z" fill="black"/>
<path d="M144.896 18.682H157.297V15.2581H145.934C145.628 15.2581 145.381 15.0111 145.381 14.7051V13.4786H157.294V10.0547H145.381V8.83108C145.381 8.52517 145.628 8.27809 145.934 8.27809H157.297V4.85425H144.896C143.275 4.85425 141.96 6.16907 141.96 7.78981V15.7435C141.96 17.3642 143.275 18.679 144.896 18.679V18.682Z" fill="black"/>
<path d="M160.326 35.5248C160.326 35.26 160.123 35.1041 159.818 35.1041H159.229V36.4248H159.479V35.9689H159.756L160.076 36.4248H160.376L160.02 35.9248C160.203 35.8718 160.326 35.7395 160.326 35.5248ZM159.806 35.7483H159.479V35.3306H159.806C159.97 35.3306 160.068 35.4042 160.068 35.5395C160.068 35.6689 159.97 35.7483 159.806 35.7483Z" fill="black"/>
<path d="M159.741 34.5394C159.032 34.5394 158.476 35.1159 158.476 35.8042C158.476 36.4925 159.026 37.0631 159.735 37.0631C160.444 37.0631 161 36.4866 161 35.7983C161 35.11 160.45 34.5394 159.741 34.5394ZM159.735 36.8102C159.165 36.8102 158.735 36.3601 158.735 35.8042C158.735 35.2483 159.167 34.7923 159.741 34.7923C160.315 34.7923 160.741 35.2424 160.741 35.7983C160.741 36.3542 160.309 36.8102 159.735 36.8102Z" fill="black"/>
<path d="M107.433 32.9951V31.7685L119.346 31.7744V28.3446H107.433V27.121C107.433 26.8151 107.68 26.568 107.986 26.568L119.349 26.5798V23.1471H106.948C105.327 23.1471 104.012 24.4619 104.012 26.0827V34.0363C104.012 35.6571 105.327 36.9719 106.948 36.9719H119.505V33.548H107.986C107.68 33.548 107.433 33.301 107.433 32.9951Z" fill="black"/>
<path d="M116.755 4.86017H113.331V18.682H116.755V4.86017Z" fill="black"/>
<path d="M137.648 4.85722C136.933 4.64837 136.133 4.75426 135.498 5.13959C134.703 5.62199 134.215 6.46619 133.762 7.27802C132.286 9.9165 130.812 12.555 129.335 15.1935C127.8 12.4667 126.262 9.74002 124.726 7.0133C124.382 6.40147 124.023 5.772 123.47 5.33373C122.888 4.87192 122.108 4.66308 121.37 4.7778C120.635 4.89251 119.952 5.32491 119.54 5.94555C118.961 6.81916 118.946 7.93691 118.949 8.987C118.961 12.0314 118.976 15.6347 118.987 18.6791H122.394C122.396 15.7376 122.402 12.7874 122.405 9.84591C123.573 11.9343 124.738 14.0228 125.906 16.1112C126.332 16.876 126.779 17.6643 127.482 18.1849C128.538 18.9673 130.109 18.9703 131.168 18.1878C131.544 17.9084 131.847 17.5525 132.115 17.1642C132.347 16.8289 132.55 16.4671 132.747 16.1112C133.915 14.0228 135.08 11.9343 136.248 9.84297C136.251 12.7874 136.257 15.7317 136.259 18.6761C137.398 18.6761 138.536 18.6761 139.672 18.6761C139.675 15.3494 139.68 12.0138 139.683 8.68698C139.683 7.85455 139.677 6.98682 139.307 6.24264C138.974 5.57493 138.357 5.06018 137.642 4.85133L137.648 4.85722Z" fill="black"/>
<path d="M85.2754 18.682H88.6963V12.455L95.4234 4.86017H90.8524L86.9844 9.22233L83.1194 4.86017H78.5454L85.2754 12.4491V18.682Z" fill="black"/>
<path d="M153.676 28.3476H145.625C145.143 28.3476 144.754 27.9564 144.754 27.477C144.754 26.9975 145.154 26.5828 145.649 26.5828H157.3V23.1501H145.666C143.292 23.1501 141.348 25.0944 141.348 27.4681V27.4887C141.348 29.8566 143.269 31.7773 145.637 31.7773H153.691C154.185 31.7773 154.585 32.1774 154.585 32.6715C154.585 33.1657 154.193 33.5481 153.708 33.5481H141.934V36.9719H153.682C156.061 36.9719 157.991 35.0423 157.991 32.6627C157.991 30.289 156.05 28.3476 153.676 28.3476Z" fill="black"/>
<path d="M56.5993 18.682H60.4114L54.4461 6.46031C53.9314 5.4161 52.8695 4.75427 51.7047 4.75427H51.6488C50.484 4.75427 49.4192 5.4161 48.9074 6.46325L42.9627 18.682H46.7719L48.1662 15.7347H53.1901L51.4988 12.3167H49.8428L51.6753 8.58109L56.5963 18.685L56.5993 18.682Z" fill="black"/>
<path d="M32.4383 1.57752C31.2676 0.406825 29.2321 0.23328 28.1526 1.42457C28.1526 1.42457 21.0196 10.7166 19.1488 12.5668C16.3838 15.3082 13.4483 17.4937 10.5304 19.0938C10.1803 19.285 9.76559 19.2909 9.48027 19.0085L5.18576 14.7405C3.52679 13.0815 1.60308 13.2139 0.635345 14.1816C-0.217674 15.0346 -0.376512 16.5995 1.19128 18.1673L7.45656 24.3973C8.50665 25.4473 10.1715 25.6091 11.401 24.8091L11.554 24.7061C13.4218 23.353 16.4338 19.8645 18.4458 17.2878C18.7929 16.8436 19.4165 16.7436 19.8665 17.0613C25.7553 21.1999 27.9878 22.8765 28.8232 23.5531C29.6409 24.2149 29.9704 24.6267 29.9586 24.9738C29.938 25.668 28.5085 26.7886 26.9701 27.8946C25.0729 29.2565 23.8522 30.2066 23.008 30.9773C21.8226 32.095 21.3872 32.6627 21.1166 33.5657C20.9225 34.2158 21.049 34.9659 21.149 35.2453C21.4402 36.0777 22.0932 36.8013 23.0639 37.4014L32.0559 42.6313C34.7296 44.0785 36.0709 43.2049 36.8416 42.0489C37.5623 40.9664 37.8888 38.9456 35.4121 37.4426L28.9468 33.3775C28.2408 32.9539 28.5144 32.4803 28.6614 32.3186C28.9879 31.9656 30.3734 30.6714 30.7146 30.336C32.8883 28.2064 33.9384 26.321 33.9266 24.5796C33.9149 22.7853 32.7589 21.4529 31.7529 20.494C30.7999 19.585 29.8998 18.6997 28.5408 17.3643C27.4613 16.3024 26.0965 14.9611 24.1934 13.105C23.9463 12.8638 23.811 12.5373 23.8257 12.2108C23.8375 11.9196 23.9698 11.6549 24.1993 11.4696C24.9493 10.8578 25.9112 9.99888 26.8436 9.17233C27.7967 8.3252 28.6967 7.52512 29.3321 7.01331C29.6498 6.75741 30.1145 6.778 30.4087 7.06332L34.709 11.2284C35.7474 12.2667 37.0416 12.705 38.1741 12.402C38.53 12.3079 38.8447 12.1432 39.1065 11.9255C39.4507 11.6373 39.7007 11.2578 39.8183 10.8195C39.9684 10.2577 40.0242 9.11939 38.7035 7.80162L32.4383 1.57752Z" fill="#440099"/>
<path d="M14.3513 12.1285C16.9197 12.1285 19.0017 10.0464 19.0017 7.47806C19.0017 4.9097 16.9197 2.82764 14.3513 2.82764C11.7829 2.82764 9.70087 4.9097 9.70087 7.47806C9.70087 10.0464 11.7829 12.1285 14.3513 12.1285Z" fill="#440099"/>
</g>
<defs>
<clipPath id="clip0_673_584">
<rect width="161" height="42.7804" fill="black" transform="translate(0 0.609802)"/>
</clipPath>
</defs>
</svg>
